<svg width="351" height="170" viewBox="0 0 351 170" fill="none" xmlns="http://www.w3.org/2000/svg">
<path d="M59.15 18.97C58.58 24.71 55.37 30.45 49.53 36.2C44.27 41.42 38.69 44.93 32.81 46.75C30.94 47.32 29.68 47.61 29.01 47.61C28.01 47.61 27.5 47.04 27.5 45.89C27.5 46.03 27.67 45.15 28 43.23C28.43 40.79 29.27 39.02 30.51 37.92C31.08 37.63 32.78 36.65 35.61 34.98C39.29 32.64 42.09 30.51 44.01 28.59C46.69 25.86 48.51 22.8 49.47 19.4V18.4C49.47 15.53 47.56 14.09 43.73 14.09C41.19 14.09 38.49 14.83 35.62 16.32C28.92 19.81 22.53 26.22 16.45 35.56C14.63 38.34 12.93 41.37 11.35 44.68C10.15 47.12 9.53 50.11 9.48 53.65C9.38 60.59 12.52 64.61 18.88 65.71C19.21 65.71 19.71 65.78 20.35 65.92C21 66.06 21.49 66.13 21.82 66.13C25.46 66.13 29.02 64.96 32.51 62.61C35.76 60.41 38.28 57.61 40.05 54.21C40.91 54.21 42.23 54.64 44 55.5C46.06 56.51 47.23 57.56 47.52 58.66C45.99 63.45 42.4 67.39 36.75 70.5C31.63 73.37 26.39 74.81 21.03 74.81C16.96 74.81 13.3 73.97 10.05 72.3C6.51 70.48 3.95 68.14 2.37 65.26C0.79 62.39 0 59.06 0 55.28C0 47.53 2.89 39.3 8.68 30.59C20.13 13.42 32.19 4.82996 44.87 4.82996H45.16C49.23 4.82996 52.58 6.00996 55.21 8.37996C57.84 10.75 59.16 13.94 59.16 17.96V18.96L59.15 18.97Z" fill="white"/>
<path d="M85.59 53.01C84.89 53.71 84.11 54.03 83.25 53.97C82.39 53.91 81.51 53.73 80.62 53.44C79.73 53.15 78.8 52.9 77.85 52.68C76.89 52.46 75.94 52.57 74.98 53.01C73.7 53.65 73 54.51 72.88 55.59C72.75 56.67 72.88 57.9 73.26 59.27C73.64 60.64 74.18 62.06 74.88 63.52C75.58 64.99 76.14 66.4 76.55 67.77C76.96 69.14 77.11 70.4 76.98 71.55C76.85 72.7 76.18 73.59 74.97 74.23C73.12 75.25 71.26 75.95 69.38 76.33C67.5 76.71 65.83 76.17 64.36 74.7C61.55 71.83 59.58 68.85 58.43 65.76C57.28 62.67 56.77 59.68 56.9 56.77C57.03 53.87 57.76 51.18 59.1 48.69C60.44 46.2 62.19 44.1 64.36 42.38C65.19 41.74 66.11 41.2 67.13 40.76C68.15 40.31 69.17 40.06 70.19 39.99C71.21 39.93 72.15 40.07 73.01 40.42C73.87 40.77 74.52 41.42 74.97 42.38C75.16 42.83 75.21 43.29 75.11 43.77C75.01 44.25 74.89 44.71 74.73 45.16C74.57 45.61 74.48 46.04 74.44 46.45C74.41 46.87 74.58 47.26 74.97 47.65C75.67 48.35 76.55 48.7 77.6 48.7C78.65 48.7 79.53 48.35 80.23 47.65C80.61 47.27 80.76 46.85 80.66 46.41C80.56 45.96 80.44 45.5 80.28 45.02C80.12 44.54 79.99 44.08 79.9 43.63C79.8 43.19 79.91 42.77 80.23 42.39C80.93 41.63 81.76 41.31 82.72 41.43C83.68 41.56 84.63 41.88 85.59 42.39C86.48 42.84 87.12 43.51 87.5 44.4C87.88 45.29 88.06 46.26 88.03 47.32C88 48.38 87.76 49.41 87.31 50.43C86.86 51.45 86.29 52.31 85.59 53.01Z" fill="white"/>
<path d="M106.82 64.6699H97.25V36.0099H106.82V45.5799H125.91V55.0999H106.82V64.6699H135.48V74.2399H106.82V64.6699ZM135.48 36.0099H106.82V26.4399H135.48V36.0099H145.05V45.5799H135.48V36.0099ZM135.48 55.0999H145.05V64.6699H135.48V55.0999Z" fill="white"/>
<path d="M177.54 26.39H177.77C182.03 26.39 184.99 28.88 186.64 33.86C187.64 31.65 188.76 29.39 190 27.09C190.75 27.09 191.69 27.16 192.82 27.3C193.95 27.44 195.08 27.86 196.2 28.56C197.32 29.26 198.27 30.42 199.05 32.04C198.24 33.38 197.2 35.38 195.92 38.06C194.64 40.74 193.42 43.68 192.23 46.88C191.23 49.56 190.3 52.46 189.43 55.59C188.56 58.72 188.12 61.32 188.12 63.41C188.12 64.41 188.27 65.21 188.56 65.81C188.85 66.42 189.33 66.74 189.98 66.77H190.03C191.21 66.77 192.53 66.08 194 64.69C195.46 63.31 196.85 61.66 198.16 59.77C199.47 57.87 200.51 56.07 201.29 54.36C201.73 54.36 202.09 54.45 202.39 54.62C202.69 54.79 202.91 55 203.07 55.25C203.23 55.5 203.33 55.75 203.4 56C203.47 56.25 203.51 56.54 203.54 56.89C201.83 60.59 200.15 63.6 198.5 65.9C196.85 68.2 195.24 69.96 193.67 71.17C192.1 72.38 190.62 73.2 189.24 73.62C187.86 74.04 186.6 74.25 185.48 74.25C183.4 74.25 181.72 73.42 180.46 71.75C179.2 70.08 178.48 67.71 178.29 64.63C174.77 69.08 170.96 72.05 166.85 73.55C165.45 74.02 164.11 74.25 162.84 74.25C159.88 74.16 157.54 72.9 155.81 70.47C154.08 68.04 153.22 64.78 153.22 60.67C153.22 59.21 153.34 57.65 153.59 56C154.71 49.37 157.18 43.34 160.99 37.91C164.8 32.48 169.09 28.88 173.85 27.1C175.16 26.63 176.39 26.4 177.54 26.4V26.39ZM180.67 33.91C180.45 33.75 180.03 33.68 179.41 33.68C179.04 33.68 178.62 33.74 178.15 33.87C174.29 35.67 170.66 40.19 167.27 47.41C166.21 49.81 165.45 51.84 164.98 53.53C164.08 56.83 163.63 59.61 163.63 61.89C163.63 64.63 164.28 66.42 165.59 67.26C166.03 67.48 166.46 67.59 166.9 67.59C167.37 67.59 167.79 67.5 168.16 67.31C171.99 65.51 175.6 60.99 178.99 53.77C179.46 52.74 179.85 51.83 180.16 51.02C180.47 50.21 180.63 49.79 180.63 49.76L180.58 49.85C180.86 48.92 181.16 48.01 181.47 47.14C182.28 44.15 182.68 41.57 182.68 39.39C182.68 36.65 182.01 34.83 180.67 33.93V33.91Z" fill="white"/>
<path d="M229.61 21.28C229.86 21.22 230.23 21.12 230.71 20.99C231.19 20.86 231.7 20.72 232.24 20.56C232.78 20.4 233.29 20.27 233.77 20.18C234.25 20.08 234.58 20.04 234.77 20.04C236.04 20.04 237.17 20.46 238.16 21.28C239.15 22.11 239.64 23.19 239.64 24.53C239.64 25.87 239.21 26.91 238.35 27.64C237.49 28.37 236.45 28.96 235.24 29.41C234.03 29.86 232.79 30.26 231.51 30.61C230.23 30.96 229.22 31.46 228.45 32.09C228.13 36.62 227.65 41.16 227.02 45.71C226.38 50.27 225.74 54.84 225.11 59.43C224.47 64.02 223.9 68.62 223.39 73.24C222.88 77.86 222.63 82.47 222.63 87.05C222.63 88.32 222.18 89.45 221.29 90.44C220.4 91.43 219.31 91.92 218.04 91.92C216.13 91.92 214.69 91.14 213.74 89.58C212.78 88.02 212.13 86.19 211.78 84.08C211.43 81.98 211.27 79.83 211.3 77.63C211.33 75.43 211.35 73.66 211.35 72.32C211.35 66.78 211.62 61.28 212.16 55.83C212.7 50.38 212.97 44.88 212.97 39.34L212.87 38.19C212.49 38.32 211.99 38.48 211.39 38.67C210.78 38.86 210.18 39.05 209.57 39.24C208.96 39.43 208.39 39.59 207.85 39.72C207.31 39.85 206.85 39.91 206.46 39.91C205.12 39.91 203.96 39.42 202.97 38.43C201.98 37.44 201.49 36.31 201.49 35.04C201.49 33.32 202.16 32.01 203.5 31.12C204.84 30.23 206.3 29.46 207.9 28.83C209.49 28.19 210.96 27.56 212.3 26.92C213.64 26.28 214.31 25.33 214.31 24.05C214.31 22.9 214.4 21.49 214.6 19.8C214.79 18.11 215.17 16.5 215.75 14.97C216.32 13.44 217.1 12.13 218.09 11.05C219.08 9.97004 220.34 9.42004 221.87 9.42004C223.4 9.42004 224.55 9.77004 225.5 10.47C226.45 11.17 227.2 12.05 227.75 13.1C228.29 14.15 228.67 15.31 228.9 16.59C229.12 17.87 229.23 19.08 229.23 20.22C229.23 20.54 229.36 20.89 229.61 21.27V21.28Z" fill="white"/>
<path d="M242.68 72.69C245.8 72.37 247.75 71.78 248.53 70.93C249.31 70.08 249.7 68.05 249.7 64.84V17.42C250.61 19.04 251.48 20.45 252.3 21.66C254.3 24.51 255.89 26.04 257.06 26.25V64.85C257.06 68.32 257.55 70.45 258.52 71.25C259.43 71.93 261.28 72.41 264.08 72.71V74.25H242.68V72.71V72.69ZM252.25 10.14L247.18 5.07L252.25 0L257.32 5.07L252.25 10.14Z" fill="white"/>
<path d="M267.49 30.65H282.34L282.8 31.16V34.59H286.29L286.8 35.1V38.58H294.74V31.15L295.2 30.64H310.05L310.56 31.15V34.58H314.04L314.5 35.09V49.94L314.04 50.45H310.56V57.88L310.05 58.39H306.62V61.82L306.11 62.33H302.63V69.76L302.17 70.27H298.69V73.7L298.18 74.21H287.27L286.81 73.7V70.27H283.32L282.81 69.76V66.27H279.38L278.87 65.81V62.33H275.39L274.93 61.82V54.39H271.44L270.93 53.93V46.45H267.5L266.99 45.99V31.14L267.5 30.63L267.49 30.65ZM270.92 34.59V42.53H274.41L274.92 43.04V50.47H278.35L278.86 50.93V58.41H282.34L282.8 58.87V62.35H286.29L286.8 62.86V66.29H290.74V62.86L291.25 62.35H294.74V58.87L295.2 58.41H298.69V50.93L299.2 50.47H302.63V43.04L303.14 42.53H306.63V34.59H298.69V42.02L298.18 42.53H294.75V49.96L294.24 50.47H290.76V57.9L290.3 58.41H287.27L286.81 57.9V50.47H283.32L282.81 49.96V42.53H279.38L278.87 42.02V34.59H270.93H270.92Z" fill="white"/>
<path d="M329.68 52.35C329.3 53.82 328.99 55.14 328.77 56.32C328.55 57.5 328.5 58.73 328.63 60C328.88 61.91 329.6 63.41 330.78 64.49C331.96 65.57 333.28 66.26 334.75 66.55C336.22 66.84 337.7 66.73 339.2 66.22C340.7 65.71 341.86 64.82 342.69 63.54C343.46 62.97 344.28 62.54 345.18 62.25C346.07 61.96 346.9 61.9 347.67 62.06C348.43 62.22 349.1 62.59 349.68 63.16C350.25 63.73 350.64 64.59 350.83 65.74C351.02 67.08 350.61 68.38 349.59 69.66C348.57 70.94 347.33 72.08 345.86 73.1C344.39 74.12 342.83 74.98 341.18 75.68C339.52 76.38 338.15 76.79 337.07 76.92C334.52 77.24 332.15 77.09 329.95 76.49C327.75 75.88 325.79 74.91 324.07 73.57C322.35 72.23 320.93 70.56 319.82 68.55C318.7 66.54 317.99 64.3 317.67 61.81C317.29 58.69 317.46 55.42 318.2 52.01C318.93 48.6 320.19 45.46 321.98 42.59C323.76 39.72 325.98 37.32 328.62 35.37C331.26 33.43 334.31 32.3 337.75 31.98C340.68 31.73 342.93 32.22 344.49 33.46C346.05 34.7 347.01 36.3 347.36 38.24C347.71 40.19 347.53 42.24 346.83 44.41C346.13 46.58 345 48.46 343.44 50.05C341.88 51.64 339.92 52.74 337.56 53.35C335.2 53.96 332.59 53.62 329.72 52.35H329.68ZM331.21 47.18C331.85 47.18 332.61 47.12 333.5 46.99C334.39 46.86 335.24 46.58 336.03 46.13C336.83 45.68 337.46 45 337.94 44.07C338.42 43.15 338.56 41.86 338.37 40.2C337.67 40.33 336.95 40.65 336.22 41.16C335.49 41.67 334.77 42.29 334.07 43.02C333.37 43.75 332.76 44.49 332.25 45.22C331.74 45.95 331.39 46.61 331.2 47.18H331.21Z" fill="white"/>
<path d="M63.55 165.95C62.87 165.83 62.47 165.5 62.35 164.96C62.23 164.42 62.47 163.99 63.07 163.67C63.23 160.71 63.63 157.8 64.27 154.96C64.91 152.12 65.41 149.21 65.77 146.25C66.13 143.29 66.22 140.34 66.04 137.42C65.86 134.5 65.67 131.57 65.47 128.65C65.39 127.13 65.33 125.64 65.29 124.17C65.25 122.71 65.23 121.22 65.23 119.69C65.23 119.25 65.21 118.95 65.17 118.79C64.49 119.35 63.94 120.07 63.52 120.95C63.1 121.83 62.73 122.67 62.41 123.47C61.89 124.63 61.46 125.84 61.12 127.11C60.78 128.37 60.33 129.58 59.77 130.75C59.29 131.71 58.74 132.64 58.12 133.54C57.5 134.44 57.09 135.43 56.89 136.51C56.81 136.67 56.69 136.87 56.53 137.11C56.49 137.39 56.36 137.63 56.14 137.83C55.92 138.03 55.63 138.13 55.27 138.13C55.19 138.21 55.06 138.21 54.88 138.13C54.7 138.05 54.53 138.01 54.37 138.01H49.92C49.12 138.01 48.36 137.95 47.64 137.83C47.32 138.07 46.94 138.17 46.5 138.13C46.1 138.05 45.78 137.85 45.54 137.53C45.3 137.21 45.04 136.91 44.76 136.63C44.2 135.95 43.7 135.29 43.26 134.65C42.82 134.01 42.4 133.31 42 132.55C41.76 132.07 41.47 131.41 41.13 130.57C40.79 129.73 40.41 128.83 39.99 127.87C39.57 126.91 39.12 125.95 38.64 124.98C38.16 124.02 37.66 123.18 37.14 122.46C37.3 123.98 37.41 125.49 37.47 127C37.53 128.5 37.62 130.01 37.74 131.54C37.94 134.54 38.19 137.55 38.49 140.55C38.79 143.55 39.04 146.58 39.24 149.62C39.24 149.82 39.29 150.5 39.39 151.66C39.49 152.82 39.58 154.13 39.66 155.6C39.74 157.06 39.79 158.51 39.81 159.96C39.83 161.4 39.78 162.52 39.66 163.33C39.9 163.65 39.95 164.02 39.81 164.44C39.67 164.86 39.34 165.11 38.82 165.19C37.78 165.19 36.65 165.15 35.42 165.07C34.2 164.99 32.98 164.95 31.76 164.95C30.54 164.95 29.33 165.03 28.15 165.19C26.97 165.35 25.88 165.67 24.87 166.15C24.75 166.35 24.58 166.5 24.36 166.6C24.14 166.7 23.93 166.71 23.73 166.63C23.21 166.67 22.81 166.47 22.53 166.03C22.25 165.59 22.33 165.15 22.77 164.71C22.81 153.37 22.87 142.09 22.95 130.88C23.03 119.67 23.09 108.38 23.13 97.05C23.05 96.81 23.01 96.6 23.01 96.42C23.01 96.24 23.09 96.01 23.25 95.73C23.49 95.45 23.78 95.26 24.12 95.16C24.46 95.06 24.83 95.01 25.23 95.01C25.63 95.01 26.02 95.04 26.4 95.1C26.78 95.16 27.11 95.19 27.39 95.19C29.71 95.15 32.01 95.08 34.27 94.98C36.53 94.88 38.81 94.81 41.09 94.77C41.65 94.97 41.98 95.28 42.08 95.7C42.18 96.12 42.07 96.49 41.75 96.81C42.99 98.69 43.87 100.49 44.39 102.19C44.91 103.89 45.29 105.61 45.53 107.33C45.77 109.05 45.97 110.83 46.13 112.65C46.29 114.47 46.65 116.43 47.21 118.51C47.45 119.35 47.64 119.99 47.78 120.43C47.92 120.87 48.09 121.26 48.29 121.6C48.49 121.94 48.73 122.29 49.01 122.65C49.29 123.01 49.67 123.55 50.15 124.27C50.23 124.43 50.29 124.57 50.33 124.69C50.41 124.49 50.46 124.32 50.48 124.18C50.5 124.04 50.53 123.93 50.57 123.85C50.89 122.81 51.3 121.86 51.8 121C52.3 120.14 52.83 119.25 53.39 118.33C54.35 116.69 55.22 114.97 56 113.19C56.78 111.41 57.54 109.62 58.28 107.84C59.02 106.06 59.8 104.29 60.62 102.55C61.44 100.81 62.39 99.16 63.48 97.59C63.16 97.31 63.03 96.96 63.09 96.54C63.15 96.12 63.46 95.81 64.02 95.61C65.22 95.33 66.54 95.16 67.99 95.1C69.43 95.04 70.9 95.04 72.41 95.1C73.92 95.16 75.39 95.24 76.86 95.34C78.32 95.44 79.69 95.51 80.98 95.55C81.26 95.67 81.5 95.83 81.7 96.03C81.74 96.07 81.78 96.1 81.82 96.12C81.86 96.14 81.9 96.17 81.94 96.21C82.7 98.09 83.22 100.05 83.5 102.07C83.78 104.09 83.93 106.14 83.95 108.2C83.97 110.26 83.92 112.33 83.8 114.39C83.68 116.45 83.58 118.47 83.5 120.43C83.06 130.69 82.52 140.86 81.88 150.96C81.8 152.36 81.71 153.51 81.61 154.41C81.51 155.31 81.42 156.12 81.34 156.84C81.26 157.56 81.19 158.28 81.13 159C81.07 159.72 81.02 160.6 80.98 161.64C80.94 161.96 80.85 162.32 80.71 162.72C80.57 163.12 80.42 163.54 80.26 163.98C80.78 164.06 81.14 164.4 81.34 165C81.34 165.36 81.24 165.78 81.04 166.26C80.84 166.74 80.57 167.13 80.23 167.43C79.89 167.73 79.52 167.89 79.12 167.91C78.72 167.93 78.34 167.66 77.98 167.1C77.9 166.98 77.83 166.85 77.77 166.71C77.71 166.57 77.66 166.42 77.62 166.26C75.54 166.1 73.42 165.9 71.28 165.66C69.14 165.42 67.02 165.44 64.94 165.72C64.58 165.92 64.24 165.96 63.92 165.84C63.84 165.88 63.78 165.9 63.74 165.9C63.7 165.9 63.64 165.92 63.56 165.96L63.55 165.95ZM47.92 125.15C47.92 125.15 47.94 125.21 47.98 125.21L47.92 125.15Z" fill="white"/>
<path d="M110.61 95.4401C111.43 95.2801 112.13 95.1901 112.7 95.1901C114.92 95.1901 116.92 95.6001 118.73 96.4201C121.76 97.9001 123.28 100.32 123.28 103.68C123.28 105.4 123.69 106.8 124.51 107.86C125.49 109.17 125.99 113.44 125.99 120.66V122.75C125.99 129.89 126.48 134.07 127.47 135.3C130.01 138.42 131.28 140.67 131.28 142.07C131.28 142.97 130.5 143.42 128.94 143.42C128.04 143.42 126.93 143.3 125.62 143.05C122.26 142.31 120.57 141.2 120.57 139.73C120.57 139.16 120.32 138.83 119.83 138.75C119.34 138.67 118.89 138.92 118.48 139.49C117.9 140.15 116.67 140.74 114.79 141.27C112.9 141.8 110.93 142.07 108.88 142.07C106.25 142.07 104.04 141.62 102.23 140.72C99.85 139.49 98.25 138.12 97.43 136.6C96.61 135.08 96.2 132.68 96.2 129.4C96.2 126.45 96.61 124.6 97.43 123.86C100.46 120.99 105.31 119.55 111.95 119.55H113.67C116.79 119.72 118.8 119.92 119.7 120.16L121.18 120.65L120.81 117.7C120.4 114.83 119.99 112.82 119.58 111.67C119.17 110.52 118.43 109.62 117.36 108.96C116.21 108.22 114.45 107.85 112.07 107.85H109.24C105.55 107.93 103.19 108.24 102.16 108.77C101.13 109.31 99.84 110.88 98.28 113.51C96.97 115.81 95.86 116.96 94.96 116.96C94.47 116.96 94.16 116.82 94.04 116.53C93.92 116.24 93.86 115.65 93.86 114.74C93.94 113.18 94.49 111.11 95.52 108.53C96.54 105.95 97.47 104.33 98.29 103.67C100.18 102.19 102.58 100.47 105.49 98.5001C108.4 96.5301 110.11 95.5101 110.6 95.4201L110.61 95.4401ZM103.6 136.67C103.43 136.26 103.02 136.06 102.37 136.06C101.88 136.06 101.71 136.26 101.88 136.67C102.04 137 102.45 137.16 103.11 137.16C103.6 137.16 103.77 137 103.6 136.67ZM119.48 126.33C119.48 126 117.18 125.84 112.59 125.84C108.73 125.84 106.27 126.02 105.21 126.39C104.14 126.76 103.32 127.73 102.75 129.28C102.59 129.61 102.5 130.1 102.5 130.76C102.5 132.57 104.96 133.88 109.88 134.7C110.21 134.78 110.62 134.82 111.11 134.82C111.93 134.82 112.87 134.33 113.94 133.34C115 132.52 116.2 131.25 117.51 129.52C118.82 127.8 119.48 126.73 119.48 126.32V126.33ZM119.48 101.1C118.66 99.3801 116.65 98.5201 113.45 98.5201C111.73 98.5201 110.41 98.8501 109.51 99.5101L107.91 100.74L112.71 101.11C115.74 101.28 117.8 101.52 118.86 101.85C119.52 102.02 119.86 102.08 119.91 102.03C119.95 101.99 119.81 101.68 119.48 101.11V101.1ZM119.23 134.89C120.13 134.11 120.58 133.43 120.58 132.86C120.58 132.29 120.46 132 120.21 132C119.8 132 119.06 132.66 117.99 133.97C116.84 135.37 116.47 136.06 116.88 136.06C117.54 136.06 118.31 135.67 119.22 134.89H119.23Z" fill="white"/>
<path d="M172.39 138.15C171.49 139.05 170.48 139.46 169.38 139.38C168.27 139.3 167.14 139.07 166 138.7C164.85 138.33 163.66 138 162.43 137.72C161.2 137.43 159.97 137.58 158.74 138.15C157.1 138.97 156.2 140.08 156.03 141.47C155.87 142.87 156.03 144.44 156.52 146.21C157.01 147.98 157.71 149.8 158.61 151.69C159.51 153.58 160.23 155.4 160.76 157.17C161.29 158.94 161.48 160.55 161.31 162.03C161.14 163.51 160.28 164.66 158.73 165.48C156.35 166.79 153.95 167.7 151.53 168.19C149.11 168.68 146.96 167.98 145.07 166.1C141.46 162.41 138.92 158.57 137.44 154.59C135.96 150.61 135.31 146.76 135.47 143.02C135.64 139.29 136.58 135.82 138.3 132.62C140.02 129.42 142.28 126.71 145.07 124.5C146.13 123.68 147.33 122.98 148.64 122.41C149.95 121.84 151.27 121.51 152.58 121.42C153.89 121.34 155.1 121.52 156.21 121.97C157.32 122.42 158.16 123.26 158.73 124.49C158.98 125.06 159.04 125.66 158.91 126.27C158.79 126.89 158.62 127.48 158.42 128.06C158.22 128.63 158.09 129.19 158.05 129.72C158.01 130.25 158.23 130.77 158.73 131.26C159.63 132.16 160.76 132.61 162.11 132.61C163.46 132.61 164.59 132.16 165.49 131.26C165.98 130.77 166.17 130.24 166.04 129.66C165.92 129.09 165.75 128.49 165.55 127.88C165.34 127.26 165.18 126.67 165.06 126.09C164.94 125.52 165.08 124.98 165.49 124.49C166.39 123.51 167.46 123.1 168.69 123.26C169.92 123.42 171.15 123.83 172.38 124.49C173.53 125.06 174.35 125.93 174.84 127.07C175.33 128.22 175.56 129.47 175.52 130.82C175.48 132.17 175.17 133.51 174.6 134.82C174.03 136.13 173.29 137.24 172.38 138.14L172.39 138.15Z" fill="white"/>
<path d="M236.63 153.15H224.31V140.83H199.73V165.47H187.41V103.94H199.73V128.58H224.31V140.84H236.63V153.16H248.95V165.48H236.63V153.16V153.15ZM224.31 116.25H236.63V128.57H224.31V116.25ZM236.63 103.93H248.95V116.25H236.63V103.93Z" fill="white"/>
<path d="M276.57 137.29C276.08 139.18 275.69 140.88 275.4 142.4C275.11 143.92 275.05 145.5 275.22 147.14C275.55 149.6 276.47 151.53 277.99 152.92C279.51 154.32 281.21 155.2 283.1 155.57C284.99 155.94 286.89 155.8 288.82 155.14C290.75 154.48 292.25 153.34 293.31 151.69C294.3 150.95 295.36 150.4 296.51 150.03C297.66 149.66 298.73 149.58 299.71 149.78C300.69 149.98 301.56 150.46 302.29 151.19C303.03 151.93 303.52 153.04 303.77 154.51C304.02 156.23 303.48 157.91 302.17 159.56C300.86 161.2 299.26 162.68 297.37 163.99C295.48 165.3 293.47 166.41 291.34 167.31C289.21 168.21 287.44 168.74 286.05 168.91C282.77 169.32 279.71 169.14 276.88 168.36C274.05 167.58 271.53 166.33 269.31 164.61C267.09 162.89 265.27 160.73 263.83 158.15C262.39 155.57 261.47 152.67 261.06 149.47C260.57 145.45 260.79 141.25 261.74 136.86C262.68 132.47 264.3 128.43 266.6 124.74C268.9 121.05 271.75 117.95 275.15 115.45C278.55 112.95 282.47 111.49 286.9 111.08C290.67 110.75 293.57 111.39 295.58 112.99C297.59 114.59 298.82 116.64 299.27 119.14C299.72 121.64 299.5 124.29 298.59 127.08C297.69 129.87 296.23 132.29 294.22 134.34C292.21 136.39 289.69 137.81 286.65 138.59C283.61 139.37 280.25 138.94 276.56 137.3L276.57 137.29ZM278.54 130.64C279.36 130.64 280.34 130.56 281.49 130.39C282.64 130.23 283.72 129.86 284.75 129.28C285.77 128.71 286.6 127.82 287.21 126.63C287.82 125.44 288.01 123.78 287.76 121.65C286.86 121.82 285.93 122.23 284.99 122.88C284.05 123.54 283.12 124.34 282.22 125.28C281.32 126.22 280.54 127.17 279.88 128.11C279.22 129.05 278.77 129.89 278.53 130.63L278.54 130.64Z" fill="white"/>
<path d="M313.37 122.17H306.46V120.44C311.17 119.6 315.78 115.7 320.29 108.73C324.22 102.65 326.5 97.05 327.13 91.91H329.64V114.46H340.95V122.16H329.64V148.09C330.01 151.39 331.42 153.04 333.88 153.04C335.82 153.04 338.17 151.97 340.95 149.82L341.89 151.63C337.75 154.83 334.48 157.47 332.07 159.57L323.74 166.88C322.17 164.31 319.94 161.9 317.06 159.65C313.76 157.08 310.83 155.8 308.26 155.8V154.07C311.66 154.07 313.37 152.34 313.37 148.88V122.16V122.17Z" fill="white"/>
</svg>
