<svg width="33" height="30" viewBox="0 0 33 30" fill="none" xmlns="http://www.w3.org/2000/svg">
<path d="M0.347295 0.0137681H10.662L10.9815 0.364847V2.72602H13.4056L13.7598 3.0771V5.47269H19.2749V0.357963L19.5944 0.00688405H29.9091L30.2633 0.357963V2.71914H32.6805L33 3.07021V13.2928L32.6805 13.6439H30.2633V18.7586L29.9091 19.1097H27.5266V21.4709L27.1724 21.8219H24.7552V26.9367L24.4357 27.2877H22.0185V29.6489L21.6643 30H14.0863L13.7668 29.6489V27.2877H11.3427L10.9884 26.9367V24.5342H8.60597L8.25172 24.2175V21.8219H5.83456L5.51505 21.4709V16.3561H3.09092L2.73669 16.0395V10.8903H0.354227L0 10.5737V0.351079L0.354227 0L0.347295 0.0137681ZM2.72974 2.72602V8.19183H5.15385L5.5081 8.54291V13.6576H7.89054L8.24479 13.9743V19.1234H10.662L10.9815 19.4401V21.8357H13.4056L13.7598 22.1868V24.548H16.4965V22.1868L16.8508 21.8357H19.2749V19.4401L19.5944 19.1234H22.0185V13.9743L22.3728 13.6576H24.7552V8.54291L25.1095 8.19183H27.5336V2.72602H22.0185V7.84075L21.6643 8.19183H19.2818V13.3066L18.9276 13.6576H16.5104V18.7724L16.1909 19.1234H14.0863L13.7668 18.7724V13.6576H11.3427L10.9884 13.3066V8.19183H8.60597L8.25172 7.84075V2.72602H2.73669H2.72974Z" fill="#534AB7"/>
</svg>
